name analog
datacolumns 19
datarows 32
range 0.40750000000000003 0.423
endheader
time	ground_force_vx	ground_force_vy	ground_force_vz	ground_force_px	ground_force_py	ground_force_pz	l_ground_force_vx	l_ground_force_vy	l_ground_force_vz	l_ground_force_px	l_ground_force_py	l_ground_force_pz	ground_torque_x	ground_torque_y	ground_torque_z	l_ground_torque_x	l_ground_torque_y	l_ground_torque_z
0.40750000000000003	-0.0	-0.0	-0.0	-23.969945907592773	25.116291046142575	-366.8931884765625	5.084079265594482	-22.89677047729492	-380.9480895996094	-0.0	-0.0	-0.0	-0.0	-0.0	-0.0	97983.609375	24017.8359375	-7475.52587890625
0.40800000000000003	-0.0	-0.0	-0.0	-23.57922744750977	25.38967514038086	-368.3419189453125	5.3991570472717285	-22.351459503173828	-381.57470703125	-0.0	-0.0	-0.0	-0.0	-0.0	-0.0	98400.0078125	23969.279296875	-7421.92724609375
0.40850000000000003	-0.0	-0.0	-0.0	-23.708744049072266	25.949663162231445	-373.1514892578125	5.793700218200684	-22.46108627319336	-382.4537048339844	-0.0	-0.0	-0.0	-0.0	-0.0	-0.0	98285.8984375	23780.640625	-7410.4765625
0.40900000000000003	-0.0	-0.0	-0.0	-23.48994255065918	26.53330612182617	-374.640380859375	5.909835338592529	-22.3516845703125	-381.1405944824219	-0.0	-0.0	-0.0	-0.0	-0.0	-0.0	98516.078125	23921.03125	-7294.59765625
0.40950000000000003	-0.0	-0.0	-0.0	-23.716873168945312	26.67095947265625	-377.1702270507813	6.332308769226074	-22.00486183166504	-381.9718627929688	-0.0	-0.0	-0.0	-0.0	-0.0	-0.0	98722.171875	23966.740234375	-7191.10009765625
0.41000000000000003	-0.0	-0.0	-0.0	-23.963441848754883	26.93819999694824	-382.982421875	5.637050151824951	-21.6933650970459	-382.9114990234375	-0.0	-0.0	-0.0	-0.0	-0.0	-0.0	98979.21875	23919.095703125	-7387.84716796875
0.41050000000000003	-0.0	-0.0	-0.0	-24.471155166625977	27.452163696289062	-384.6948547363281	5.561420440673828	-22.072998046875	-386.6740112304688	-0.0	-0.0	-0.0	-0.0	-0.0	-0.0	99663.0546875	23710.509765625	-7534.0986328125
0.41100000000000003	-0.0	-0.0	-0.0	-23.37315368652344	26.82139587402344	-390.0193176269531	5.459317684173584	-21.645492553710938	-390.4327087402344	-0.0	-0.0	-0.0	-0.0	-0.0	-0.0	100718.703125	23942.876953125	-7625.27392578125
0.41150000000000003	-0.0	-0.0	-0.0	-23.11898422241211	27.431745529174805	-392.3000793457031	5.3499436378479	-21.074914932250977	-392.6344604492188	-0.0	-0.0	-0.0	-0.0	-0.0	-0.0	101943.015625	23704.72265625	-7743.8623046875
0.41200000000000003	-0.0	-0.0	-0.0	-22.597633361816406	27.294170379638672	-393.5227966308594	5.554586887359619	-21.435029983520508	-397.6837158203125	-0.0	-0.0	-0.0	-0.0	-0.0	-0.0	102773.828125	23632.203125	-7711.82568359375
0.41250000000000003	-0.0	-0.0	-0.0	-22.014835357666016	27.53411865234375	-396.34771728515625	6.045507907867432	-21.693029403686523	-400.0724487304688	-0.0	-0.0	-0.0	-0.0	-0.0	-0.0	103587.1015625	23660.451171875	-7757.3291015625
0.41300000000000003	-0.0	-0.0	-0.0	-21.588943481445312	27.84325408935547	-400.39794921875	6.318517208099365	-21.25134658813477	-402.9490661621094	-0.0	-0.0	-0.0	-0.0	-0.0	-0.0	104554.9375	23622.11328125	-7526.47802734375
0.41350000000000003	-0.0	-0.0	-0.0	-20.86785125732422	28.227094650268555	-402.870361328125	7.498760223388672	-21.23145866394043	-406.277099609375	-0.0	-0.0	-0.0	-0.0	-0.0	-0.0	106059.734375	23518.43359375	-7351.8916015625
0.41400000000000003	-0.0	-0.0	-0.0	-20.51841735839844	28.38568115234375	-406.6365661621094	8.215631484985352	-20.851238250732425	-412.1056518554688	-0.0	-0.0	-0.0	-0.0	-0.0	-0.0	107088.234375	23053.833984375	-7228.41015625
0.41450000000000004	-0.0	-0.0	-0.0	-19.71552276611328	28.638038635253903	-411.837890625	9.272665977478027	-20.76300048828125	-414.9468078613281	-0.0	-0.0	-0.0	-0.0	-0.0	-0.0	108411.1640625	22906.111328125	-6907.9130859375
0.41500000000000004	-0.0	-0.0	-0.0	-18.784500122070312	29.254213333129883	-415.3701477050781	10.009218215942385	-20.19121360778809	-420.43798828125	-0.0	-0.0	-0.0	-0.0	-0.0	-0.0	109531.4609375	22816.0390625	-6763.935546875
0.41550000000000004	-0.0	-0.0	-0.0	-17.06633758544922	29.769554138183597	-419.3775024414063	10.788037300109863	-20.233295440673828	-421.638671875	-0.0	-0.0	-0.0	-0.0	-0.0	-0.0	110243.7578125	22738.212890625	-6466.78955078125
0.41600000000000004	-0.0	-0.0	-0.0	-16.360530853271484	30.409263610839844	-421.4956665039063	10.780234336853027	-20.13734436035156	-426.8757019042969	-0.0	-0.0	-0.0	-0.0	-0.0	-0.0	111685.8359375	22483.71875	-6425.52001953125
0.4165	-0.0	-0.0	-0.0	-15.227932929992676	31.036407470703125	-425.2286376953125	11.53240203857422	-20.64044189453125	-430.3360290527344	-0.0	-0.0	-0.0	-0.0	-0.0	-0.0	112766.515625	22038.033203125	-6354.15673828125
0.417	-0.0	-0.0	-0.0	-14.14931297302246	30.741863250732425	-428.4820556640625	12.11849308013916	-20.180011749267575	-436.6513671875	-0.0	-0.0	-0.0	-0.0	-0.0	-0.0	114031.65625	21909.951171875	-6192.623046875
0.4175	-0.0	-0.0	-0.0	-13.335796356201172	30.81449317932129	-431.9065246582031	12.6668119430542	-20.287220001220703	-439.89935302734375	-0.0	-0.0	-0.0	-0.0	-0.0	-0.0	115216.2265625	21729.4609375	-5901.98193359375
0.418	-0.0	-0.0	-0.0	-11.375326156616213	31.257835388183597	-435.9307861328125	13.086012840270996	-20.35698127746582	-444.0244445800781	-0.0	-0.0	-0.0	-0.0	-0.0	-0.0	116755.171875	21272.44140625	-5717.50830078125
0.4185	-0.0	-0.0	-0.0	-9.759310722351074	31.1434383392334	-440.2356262207031	13.84085178375244	-20.44548988342285	-451.5911560058594	-0.0	-0.0	-0.0	-0.0	-0.0	-0.0	118145.390625	21170.001953125	-5586.69189453125
0.419	-0.0	-0.0	-0.0	-8.358893394470215	31.463031768798828	-444.3393249511719	15.037323951721191	-20.287322998046875	-454.5953979492188	-0.0	-0.0	-0.0	-0.0	-0.0	-0.0	119781.484375	20690.400390625	-5176.70947265625
0.4195	-0.0	-0.0	-0.0	-6.97476053237915	31.57036399841309	-449.635986328125	15.986209869384766	-20.067211151123047	-459.3782653808594	-0.0	-0.0	-0.0	-0.0	-0.0	-0.0	121092.9296875	20418.197265625	-4826.1318359375
0.42	-0.0	-0.0	-0.0	-4.763729095458984	31.63254737854004	-456.2023010253906	16.952348709106445	-20.022432327270508	-464.7208251953125	-0.0	-0.0	-0.0	-0.0	-0.0	-0.0	122698.3984375	20118.41015625	-4739.275390625
0.4205	-0.0	-0.0	-0.0	-3.166832685470581	32.18490219116211	-459.7003479003906	17.529382705688477	-20.16390609741211	-469.5065307617188	-0.0	-0.0	-0.0	-0.0	-0.0	-0.0	124472.109375	19796.833984375	-4664.6298828125
0.421	-0.0	-0.0	-0.0	-1.3203539848327637	31.97108459472656	-466.5152587890625	18.34556198120117	-20.07554817199707	-477.7442626953125	-0.0	-0.0	-0.0	-0.0	-0.0	-0.0	126195.921875	19681.009765625	-4563.25146484375
0.4215	-0.0	-0.0	-0.0	1.248473882675171	31.88199234008789	-473.2611083984375	19.74700355529785	-19.6781063079834	-484.4827270507813	-0.0	-0.0	-0.0	-0.0	-0.0	-0.0	128482.6484375	19463.619140625	-4105.359375
0.422	-0.0	-0.0	-0.0	3.487563133239746	31.40971565246582	-480.0771789550781	21.538724899291992	-19.448266983032227	-490.8363342285156	-0.0	-0.0	-0.0	-0.0	-0.0	-0.0	130005.8125	18994.130859375	-3739.184326171875
0.4225	-0.0	-0.0	-0.0	6.734845161437988	32.158687591552734	-485.301513671875	23.543275833129883	-19.81048393249512	-496.8427734375	-0.0	-0.0	-0.0	-0.0	-0.0	-0.0	131548.3125	18612.2109375	-3269.083251953125
0.423	-0.0	-0.0	-0.0	9.616008758544922	32.318389892578125	-491.4469604492188	25.35289192199707	-20.084566116333008	-503.0231628417969	-0.0	-0.0	-0.0	-0.0	-0.0	-0.0	132987.390625	18242.486328125	-2894.146240234375
